# xmcd CD database file
#
# Track frame offsets:
#	150
#	15790
#	34517
#	49237
#	62921
#	82531
#	103990
#	118880
#	136104
#	158561
#
# Disc length: 2298 seconds
#
# Revision: 0
# Processed by: cddbd v1.5.1PL2 Copyright (c) Steve Scherf et al.
# Submitted via: CDex 1.51
#
DISCID=7008f80a
DTITLE=Freddie Roach - Mo' Greens Please
DYEAR=1963
DGENRE=Jazz
TTITLE0=Googa Mooga
TTITLE1=Baby Don't You Cry
TTITLE2=Party Time
TTITLE3=Nada Bossa
TTITLE4=Mo' Greens Please
TTITLE5=Blues In The Front Room
TTITLE6=I Know
TTITLE7=Is You Is Or Is You Ain't My Baby
TTITLE8=Unchained Melody
TTITLE9=Two Different Worlds
EXTD=YEAR: 1963
EXTT0=
EXTT1=
EXTT2=
EXTT3=
EXTT4=
EXTT5=
EXTT6=
EXTT7=
EXTT8=
EXTT9=
PLAYORDER=
